<svg width="1203" height="469" viewBox="0 0 1203 469" fill="none" xmlns="http://www.w3.org/2000/svg">
<g filter="url(#filter0_d_23_20)">
<rect width="1197" height="463.122" transform="translate(3 0.878052)" fill="white"/>
<path d="M580.807 187.098H536.13L606.748 35.4127L677.366 187.098H633.05L649.623 223.848H694.661L722.043 282.577H675.925L649.623 223.848H563.873L537.931 282.577H491.813L518.835 223.848H563.873L580.807 187.098ZM580.807 187.098H633.05L606.748 129.45L580.807 187.098Z" fill="#0881A3"/>
<path d="M387.609 394.283L381.999 381.001H344.329L338.719 394.283H319.14L354.749 314.135H371.58L407.188 394.283H387.609ZM350.741 366.002H375.702L363.221 336.462L350.741 366.002ZM494.893 333.828C507.602 333.828 518.823 342.072 518.823 362.224V394.283H500.732V362.796C500.732 355.239 497.526 349.515 489.168 349.515C482.184 349.515 477.489 355.697 476.115 361.193V394.283H458.025V362.796C458.025 355.239 453.33 349.515 446.461 349.515C439.018 349.515 434.553 354.552 433.408 361.193V394.283H415.318V334.744H433.408V345.622C433.637 342.874 439.476 333.828 451.155 333.828C459.742 333.828 467.986 338.408 472.909 346.767C474.283 343.561 481.153 333.828 494.893 333.828ZM563.248 333.714C576.873 333.714 592.559 343.904 592.559 364.399C592.559 385.696 576.873 395.428 563.248 395.428C554.088 395.428 548.706 390.39 547.905 388.329V394.283H529.814V334.744V313.333H547.905V340.24C548.706 338.981 554.088 333.714 563.248 333.714ZM560.614 379.513C568.4 379.513 575.041 374.246 575.041 364.399C575.041 354.896 568.4 349.629 560.614 349.629C553.172 349.629 547.103 354.781 547.103 364.399C547.103 374.36 553.172 379.513 560.614 379.513ZM620.496 313.333V328.562H602.405V313.333H620.496ZM620.496 334.744V394.283H602.405V334.744H620.496ZM661.142 379.169C664.348 379.169 666.638 378.711 669.157 378.024V393.023C666.638 394.168 662.516 394.97 656.448 394.97C646.487 394.97 638.128 391.649 638.128 373.33V349.629H629.77V334.744H638.128V320.776H656.219V334.744H668.928V349.629H656.219V373.33C656.219 375.963 656.906 379.169 661.142 379.169ZM696.865 313.333V328.562H678.775V313.333H696.865ZM696.865 334.744V394.283H678.775V334.744H696.865ZM738.084 333.714C751.595 333.714 769.456 343.904 769.456 364.743C769.456 385.696 751.595 395.428 738.084 395.428C724.574 395.428 706.712 385.696 706.712 364.743C706.712 343.904 724.574 333.714 738.084 333.714ZM738.084 349.629C731.214 349.629 724.23 354.896 724.23 364.743C724.23 374.246 731.214 379.513 738.084 379.513C744.954 379.513 752.053 374.246 752.053 364.743C752.053 354.896 744.954 349.629 738.084 349.629ZM801.058 395.199C789.951 395.199 778.616 387.756 778.616 368.864V334.744H796.707V367.605C796.707 376.65 799.798 379.513 805.523 379.513C813.652 379.513 818.347 371.612 819.492 368.178V334.744H837.582V394.283H819.492V383.978C818.347 386.84 812.278 395.199 801.058 395.199ZM877.541 353.522C875.939 349.4 873.534 348.026 870.901 348.026C868.496 348.026 866.092 349.4 866.092 351.69C866.092 353.865 867.466 355.125 870.099 356.041L877.656 358.674C886.129 361.766 894.716 364.857 894.716 376.765C894.716 388.787 882.694 395.657 870.328 395.657C859.222 395.657 848.803 389.13 846.284 378.711L860.481 374.246C861.97 377.566 864.603 381.345 870.328 381.345C874.221 381.345 876.74 378.826 876.74 376.536C876.74 375.391 875.824 373.902 872.962 372.757L865.977 370.238C854.07 365.888 848.459 359.819 848.459 351.346C848.459 340.24 858.764 333.714 870.099 333.714C881.663 333.714 889.335 340.011 892.77 349.515L877.541 353.522Z" fill="black"/>
</g>
<defs>
<filter id="filter0_d_23_20" x="0.937096" y="0.878052" width="1201.13" height="467.248" filterUnits="userSpaceOnUse" color-interpolation-filters="sRGB">
<feFlood flood-opacity="0" result="BackgroundImageFix"/>
<feColorMatrix in="SourceAlpha" type="matrix" values="0 0 0 0 0 0 0 0 0 0 0 0 0 0 0 0 0 0 127 0" result="hardAlpha"/>
<feOffset dy="2.0629"/>
<feGaussianBlur stdDeviation="1.03145"/>
<feComposite in2="hardAlpha" operator="out"/>
<feColorMatrix type="matrix" values="0 0 0 0 0 0 0 0 0 0 0 0 0 0 0 0 0 0 0.25 0"/>
<feBlend mode="normal" in2="BackgroundImageFix" result="effect1_dropShadow_23_20"/>
<feBlend mode="normal" in="SourceGraphic" in2="effect1_dropShadow_23_20" result="shape"/>
</filter>
</defs>
</svg>
